<?xml version="1.0" encoding="UTF-8" standalone="no"?>
<!-- Created with Inkscape (http://www.inkscape.org/) -->

<svg
   xmlns:dc="http://purl.org/dc/elements/1.1/"
   xmlns:cc="http://creativecommons.org/ns#"
   xmlns:rdf="http://www.w3.org/1999/02/22-rdf-syntax-ns#"
   xmlns:svg="http://www.w3.org/2000/svg"
   xmlns="http://www.w3.org/2000/svg"
   version="1.1"
   width="522.23224"
   height="114.00991"
   id="svg3081">
  <defs
     id="defs3083" />
  <metadata
     id="metadata3086">
    <rdf:RDF>
      <cc:Work
         rdf:about="">
        <dc:format>image/svg+xml</dc:format>
        <dc:type
           rdf:resource="http://purl.org/dc/dcmitype/StillImage" />
        <dc:title></dc:title>
      </cc:Work>
    </rdf:RDF>
  </metadata>
  <g
     transform="translate(-113.88388,-475.35723)"
     id="layer1">
    <path
       d="m 133.72421,586.4723 c -8.51177,-2.15468 -14.10442,-8.34282 -16.63475,-18.40594 -1.96068,-7.79768 -1.46306,-25.52968 1.00777,-35.90987 2.80381,-11.77908 8.11299,-25.22168 13.04669,-33.03365 4.74404,-7.51165 13.5617,-16.2121 18.53759,-18.29115 11.57045,-4.83445 22.53701,2.31972 22.54115,14.70498 0.002,5.88073 -6.37031,36.37983 -8.01499,38.36155 -1.42159,1.71291 -8.17203,1.9847 -11.0492,0.44489 -3.2727,-1.7515 -2.31967,-7.00887 4.18894,-23.108 4.47727,-11.07459 6.15728,-16.51818 6.25,-20.25132 0.12208,-4.91524 0.0197,-5.11774 -2.74785,-5.43395 -7.14483,-0.81635 -21.18856,20.56886 -27.14052,41.32845 -6.69096,23.33714 -5.6424,41.73746 2.72688,47.85213 6.49997,4.74893 18.08457,1.05543 25.22523,-8.04251 3.81646,-4.86256 4.39239,-6.32731 5.55101,-14.11755 2.09522,-14.08782 6.26282,-24.43794 10.644,-26.43415 1.39467,-0.63545 3.6009,-3.25732 4.90274,-5.82638 5.57911,-11.00984 17.20884,-14.73006 26.2287,-8.39025 8.67514,6.09752 9.45491,28.64045 1.63783,47.34936 -0.84715,2.02753 -1.07757,3.833 -0.55577,4.3548 0.93987,0.93987 7.4776,-1.34111 8.47652,-2.9574 0.31138,-0.50381 1.47852,-5.28517 2.59366,-10.62525 2.37446,-11.37053 6.21253,-21.00381 11.60521,-29.12824 6.7505,-10.17005 16.78803,-14.41137 22.16077,-9.36395 1.27078,1.19384 2.55823,1.92288 2.86101,1.6201 0.30278,-0.30277 2.38254,-7.91705 4.6217,-16.92061 2.23915,-9.00355 4.5233,-16.9326 5.07588,-17.6201 1.69002,-2.10267 7.18321,-1.49266 9.58549,1.06445 2.6137,2.78216 2.86827,8.40953 0.72524,16.03164 -17.22491,61.26391 -20.19905,74.70585 -17.6027,79.55717 1.59562,2.98145 3.39315,2.6109 6.94204,-1.43106 4.88401,-5.56258 6.78614,-10.2941 8.02907,-19.9722 2.87424,-22.3803 13.92328,-42.06664 24.75004,-44.09775 7.58403,-1.42278 16.81792,2.14784 19.64837,7.59775 4.62526,8.90575 -1.12285,28.2573 -10.96743,36.92283 -4.90042,4.31353 -9.43466,6.06255 -15.74022,6.07159 l -3.88991,0.006 0.58152,5.63434 c 1.86874,18.10631 20.64843,13.92661 32.79214,-7.29837 1.67911,-2.9352 3.44335,-5.33639 3.92052,-5.33639 4.3937,0 -3.01308,15.07743 -11.59858,23.61038 -7.02025,6.97727 -12.53009,9.38962 -21.44605,9.38962 -6.98136,0 -11.19099,-2.53054 -14.97175,-9 -1.44639,-2.475 -2.95451,-4.40037 -3.35138,-4.27859 -0.39687,0.12177 -2.18619,2.14164 -3.97627,4.48858 -5.93499,7.7813 -14.11847,11.05536 -18.76666,7.50821 -2.11988,-1.61773 -4.90368,-7.10654 -4.90368,-9.66854 0,-2.54716 -2.65551,-2.71042 -3.44847,-0.21201 -0.32079,1.01071 -2.59354,3.93571 -5.05057,6.5 -5.13496,5.35915 -9.33882,6.15093 -13.84368,2.60741 -2.7168,-2.13704 -5.65728,-9.99935 -5.65728,-15.12656 0,-3.24503 -0.65038,-3.35791 -7.45485,-1.29386 -4.00741,1.21561 -6.198,2.86509 -11.45621,8.62637 -3.57575,3.91785 -7.96912,7.73663 -9.76303,8.48618 -4.30038,1.79681 -10.71394,1.73063 -14.34689,-0.14804 -3.12302,-1.61498 -7.96902,-7.96246 -7.99433,-10.47128 -0.008,-0.83483 -0.44046,-2.19036 -0.96008,-3.01228 -0.76401,-1.20851 -1.88607,-0.43829 -5.86492,4.02589 -7.92828,8.89533 -18.89462,13.28133 -27.65969,11.06253 z m 56.75295,-9.61969 c 1.38913,-1.38912 3.11129,-3.93946 3.82704,-5.66742 1.21269,-2.92771 1.13508,-3.24771 -1.13932,-4.69713 -3.04213,-1.93867 -9.05942,-7.97529 -10.58854,-10.62255 -1.09605,-1.89751 -1.19762,-1.86014 -2.25,0.82788 -1.40463,3.58775 -1.42276,12.71138 -0.0325,16.36797 2.50069,6.57731 6.06887,7.90574 10.18335,3.79125 z m 50.11436,-4.72432 c 4.69944,-6.18574 11.8643,-28.54278 15.08658,-47.0758 0.77026,-4.4302 -0.5704,-6.6742 -3.98744,-6.6742 -5.75926,0 -12.71891,14.12782 -16.99539,34.5 -1.50419,7.1656 -2.00051,20.63721 -0.80439,21.83333 1.54811,1.54812 4.39605,0.45014 6.70064,-2.58333 z m -41.9553,-13.5 c 2.17263,-6.95357 4.58799,-22.90737 4.58799,-30.30431 0,-7.79223 -0.27294,-9.15148 -2.31418,-11.52456 -1.97147,-2.29197 -2.62658,-2.5232 -4.42368,-1.56142 -3.7202,1.99099 -7.38273,11.1405 -7.98667,19.9518 -0.73627,10.74196 0.24619,16.22809 3.7797,21.10595 3.14674,4.34396 5.46284,5.19381 6.35684,2.33254 z m 96.02047,-5.20827 c 11.13867,-6.88408 22.37269,-38.04173 13.71611,-38.04173 -2.29352,0 -8.31071,6.41832 -10.97342,11.70494 -4.28292,8.50346 -8.93568,25.25551 -7.6102,27.40018 0.77874,1.26003 1.28823,1.14872 4.86751,-1.06339 z m 51.56752,32.6685 c -3.65496,-1.84253 -3.54872,-4.67054 0.47564,-12.66186 1.97517,-3.92215 3.32461,-7.56255 2.99877,-8.08978 -0.32585,-0.52722 -1.63579,-0.95859 -2.91098,-0.95859 -1.2752,0 -2.89457,-0.69407 -3.5986,-1.54238 -1.97137,-2.37535 0.19943,-3.77072 6.0439,-3.88497 3.29052,-0.0643 5.43303,-0.62314 6.08065,-1.58598 2.0564,-3.05733 13.67655,-26.74585 16.42653,-33.48667 1.57065,-3.85 3.18211,-7.45 3.58103,-8 1.67351,-2.30733 9.06063,-23.15603 10.18429,-28.74318 1.43155,-7.11808 4.71989,-10.47532 9.16709,-9.35915 3.64069,0.91376 4.32599,3.69803 3.47106,14.10233 -0.40674,4.95 -1.23585,15.075 -1.84246,22.5 -0.60661,7.425 -1.53976,18.675 -2.07365,25 -1.09168,12.93293 -1.28416,30.34996 -0.37298,33.75 0.72,2.6867 3.44845,2.92877 5.63574,0.5 3.77741,-4.19445 6.50797,-11.82604 7.1964,-20.11311 1.58497,-19.07919 11.55558,-38.32168 22.15036,-42.74846 6.37585,-2.664 14.08387,-0.96745 19.59719,4.31337 6.63481,6.35502 5.80891,25.73874 -1.35346,31.76547 -3.45003,2.90301 -6.44907,3.20685 -9.63401,0.97603 -2.94446,-2.06238 -2.80606,-5.30809 0.4287,-10.05375 5.80757,-8.52019 7.7334,-15.93387 5.31361,-20.45529 -3.25357,-6.07934 -11.66415,3.2537 -17.13798,19.01764 -4.68378,13.48871 -6.1747,28.88645 -3.43247,35.44953 4.11974,9.85994 16.00172,8.51056 26.5339,-3.01332 3.36812,-3.68527 5.20721,-6.67518 5.6448,-9.17713 4.54208,-25.96949 8.38899,-41.22651 11.21039,-44.46098 2.95707,-3.39 9.54106,-1.65685 11.30213,2.97513 l 0.98986,2.60352 4.71228,-5.03628 c 9.68734,-10.35343 19.21227,-8.79397 19.21227,3.14552 0,1.81922 -1.575,8.11573 -3.5,13.99223 -3.9005,11.90718 -4.28832,15.33014 -1.84318,16.26843 3.44993,1.32386 6.50872,-1.917 9.29401,-9.84726 3.16574,-9.01344 5.24265,-12.46054 8.04315,-13.34938 1.12599,-0.35737 3.14085,-2.80789 4.47748,-5.44558 7.22595,-14.25974 23.82774,-15.79676 30.73566,-2.84556 2.02014,3.78744 2.27863,5.63461 2.20946,15.78923 -0.0661,9.70674 -0.50595,12.80106 -2.82053,19.84359 -1.50821,4.58898 -2.55728,8.52851 -2.33128,8.75451 0.226,0.22601 1.76949,-0.0627 3.42997,-0.64153 2.40252,-0.83752 4.26497,-3.23793 9.12019,-11.75451 3.35563,-5.88613 7.4801,-13.67044 9.16549,-17.29847 2.89393,-6.22957 3.0013,-6.89038 1.9307,-11.88242 -2.01424,-9.3921 0.29548,-18.67872 5.70376,-22.93287 3.32482,-2.6153 5.57144,-2.64488 7.87124,-0.10364 2.58418,2.85549 1.43458,10.54419 -2.96024,19.79842 -1.93923,4.08348 -3.52588,8.00847 -3.52588,8.72221 0,0.71374 2.04076,6.37556 4.53501,12.58183 5.60068,13.93575 7.22302,22.42692 5.7262,29.97047 -0.59395,2.99333 -0.91511,5.6105 -0.71368,5.81595 1.0725,1.09394 3.7354,-1.30791 5.11047,-4.60948 0.86223,-2.07023 3.07999,-5.23664 4.92835,-7.03647 4.89794,-4.76931 20.87768,-37.33475 20.66739,-42.11847 -0.66216,-15.06276 -0.45304,-19.84613 1.01121,-23.12942 2.98121,-6.6848 8.28982,-9.42493 11.6839,-6.03085 3.45398,3.45398 2.23588,10.58367 -3.94719,23.10347 l -3.23596,6.55231 4.12306,12.67328 c 7.4671,22.95202 8.35197,29.1811 5.50644,38.76304 -2.82466,9.51164 -10.42383,14.9479 -20.8952,14.9479 -6.24829,0 -11.30742,-1.82007 -15.44198,-5.5554 -2.09023,-1.8884 -4.11341,-3.43345 -4.49594,-3.43345 -0.38254,0 -2.1589,1.11617 -3.94747,2.48038 -1.78857,1.36421 -5.19013,3.16421 -7.55901,4 -5.10815,1.80226 -18.6708,2.0148 -24.13332,0.37819 -5.58692,-1.67388 -10.36151,-6.04352 -11.78119,-10.78199 -0.67175,-2.24212 -1.48794,-4.07658 -1.81375,-4.07658 -0.32581,0 -3.28839,2.94222 -6.58352,6.53826 -7.15123,7.80431 -10.04967,9.46174 -16.54628,9.46174 -10.20364,0 -15.92153,-7.73513 -16.90172,-22.86459 l -0.56893,-8.78148 -6.83548,0.073 c -6.13196,0.0655 -7.11232,-0.20327 -9.52534,-2.61159 -3.88317,-3.87561 -3.68446,-11.68967 0.56728,-22.30789 1.73047,-4.32164 2.9175,-8.45377 2.63786,-9.18251 -2.33731,-6.09092 -13.14958,10.50748 -18.5748,28.515 -2.21336,7.34662 -5.99641,27.02896 -5.99641,31.19792 0,3.26555 -2.80699,5.9621 -6.2063,5.9621 -3.38632,0 -4.93496,-2.07367 -5.5369,-7.41406 l -0.49741,-4.41298 -5.42577,4.41935 c -2.98417,2.43064 -7.09253,5.15282 -9.12969,6.0493 -5.00794,2.20378 -15.75019,2.22692 -19.90224,0.0429 -3.2017,-1.68419 -8.30169,-7.46285 -8.30169,-9.40646 0,-0.56824 -0.6025,-1.53319 -1.33889,-2.14434 -1.05082,-0.8721 -2.02993,-0.0447 -4.55078,3.84562 -4.16762,6.43173 -7.86984,9.02067 -12.89969,9.02067 -5.12974,0 -6.75229,-2.37402 -9.10191,-13.31738 l -1.75686,-8.18262 -6.90502,-0.30091 c -10.61751,-0.4627 -10.55271,-0.50758 -14.93869,10.34506 -3.30371,8.17466 -6.25441,12.50333 -8.48067,12.44111 -0.29012,-0.008 -1.65249,-0.58187 -3.02749,-1.27503 z m 270.25,-8.70859 c 2.70488,-5.27232 2.75,-5.66088 2.75,-23.68095 0,-11.39163 -0.37346,-18.32069 -0.98743,-18.32069 -0.54308,0 -2.52286,3.0375 -4.39949,6.75 -1.87664,3.7125 -5.0323,9.60573 -7.01258,13.09607 -3.66515,6.46 -4.30784,9.00625 -2.70176,10.70393 0.49431,0.5225 1.07429,4.26156 1.28885,8.30902 0.29899,5.64009 0.81261,7.66796 2.19891,8.68165 2.91974,2.13496 5.87347,0.2891 8.8635,-5.53903 z m -49.60796,4.22612 c 4.08152,-3.29214 5.66434,-8.15085 6.15103,-18.88154 0.48312,-10.65183 -0.43457,-23.34622 -1.68772,-23.34622 -0.4045,0 -3.12755,4.71876 -6.05123,10.48613 -2.92367,5.76737 -5.9319,10.99747 -6.68494,11.62244 -1.719,1.42664 -1.88317,15.0464 -0.21948,18.20717 2.15287,4.09011 4.99787,4.73066 8.49234,1.91202 z m -40.55439,-4.31541 c 1.14821,-1.14821 2.77121,-3.72364 3.60667,-5.72319 1.46768,-3.51265 1.43937,-3.68624 -0.83764,-5.13515 -2.98634,-1.90028 -9.00603,-7.96439 -10.4894,-10.56679 -1.96695,-3.45079 -2.86728,-0.61988 -2.86728,9.01555 0,8.50448 0.21595,9.56597 2.42431,11.91667 2.93597,3.12519 5.38329,3.27296 8.16334,0.49291 z m 9.87056,-25.41235 c 1.15299,-4.4 2.37282,-12.75007 2.71074,-18.55571 0.88673,-15.23457 -1.57683,-21.20035 -7.2261,-17.4988 -5.95754,3.90353 -9.57456,25.54735 -5.91444,35.39124 1.87205,5.03484 6.39853,10.64822 7.59594,9.41986 0.40564,-0.41612 1.68088,-4.35659 2.83386,-8.75659 z m -155.72668,-13 c 0.40234,-11 0.59751,-20.42701 0.4337,-20.9489 -0.44281,-1.41081 -15.66523,38.05323 -15.66523,40.612 0,0.50849 3.2625,0.7923 7.25,0.63071 l 7.25,-0.29381 0.73153,-20 z"
       id="path3068"
       style="fill:#000000" />
  </g>
</svg>
